<svg xmlns="http://www.w3.org/2000/svg" width="27.762" height="27.756" viewBox="0 0 27.762 27.756">
  <path id="Icon_awesome-instagram" data-name="Icon awesome-instagram" d="M13.879,9a7.116,7.116,0,1,0,7.116,7.116A7.1,7.1,0,0,0,13.879,9Zm0,11.743a4.626,4.626,0,1,1,4.626-4.626,4.635,4.635,0,0,1-4.626,4.626ZM22.946,8.708a1.66,1.66,0,1,1-1.66-1.66A1.656,1.656,0,0,1,22.946,8.708Zm4.713,1.685a8.214,8.214,0,0,0-2.242-5.816A8.268,8.268,0,0,0,19.6,2.335c-2.292-.13-9.16-.13-11.452,0A8.256,8.256,0,0,0,2.334,4.571,8.241,8.241,0,0,0,.092,10.387c-.13,2.292-.13,9.16,0,11.452a8.214,8.214,0,0,0,2.242,5.816A8.279,8.279,0,0,0,8.15,29.9c2.292.13,9.16.13,11.452,0a8.214,8.214,0,0,0,5.816-2.242,8.268,8.268,0,0,0,2.242-5.816c.13-2.292.13-9.154,0-11.445ZM24.7,24.3a4.684,4.684,0,0,1-2.638,2.638c-1.827.725-6.162.557-8.181.557s-6.361.161-8.181-.557A4.684,4.684,0,0,1,3.059,24.3C2.334,22.47,2.5,18.135,2.5,16.116s-.161-6.361.557-8.182A4.684,4.684,0,0,1,5.7,5.3c1.827-.725,6.162-.557,8.181-.557s6.361-.161,8.181.557A4.684,4.684,0,0,1,24.7,7.934c.725,1.827.557,6.162.557,8.182S25.423,22.476,24.7,24.3Z" transform="translate(0.005 -2.238)" fill="#fff"/>
</svg>
