<svg xmlns="http://www.w3.org/2000/svg" xmlns:xlink="http://www.w3.org/1999/xlink" width="47.188" height="47.176" viewBox="0 0 47.188 47.176">
  <defs>
    <radialGradient id="radial-gradient" cx="0.266" cy="1.077" r="0.991" gradientTransform="translate(-2.918 5.666) rotate(-90) scale(1 0.93)" gradientUnits="objectBoundingBox">
      <stop offset="0" stop-color="#fd5"/>
      <stop offset="0.1" stop-color="#fd5"/>
      <stop offset="0.5" stop-color="#ff543e"/>
      <stop offset="1" stop-color="#c837ab"/>
    </radialGradient>
    <radialGradient id="radial-gradient-2" cx="-0.168" cy="0.072" r="0.443" gradientTransform="matrix(0.196, 0.981, -4.042, 0.809, 15.634, -0.42)" gradientUnits="objectBoundingBox">
      <stop offset="0" stop-color="#3771c8"/>
      <stop offset="0.128" stop-color="#3771c8"/>
      <stop offset="1" stop-color="#60f" stop-opacity="0"/>
    </radialGradient>
  </defs>
  <g id="Group_93" data-name="Group 93" transform="translate(-1818.692 -601.624)">
    <path id="Path_3" data-name="Path 3" d="M23.6,0c-9.85,0-12.731.01-13.291.057a11.706,11.706,0,0,0-4.65,1.169A9.419,9.419,0,0,0,2.947,3.21,10.125,10.125,0,0,0,.214,8.948c-.16,1.1-.206,1.328-.216,6.964,0,1.878,0,4.351,0,7.667C0,33.421.009,36.3.056,36.858a11.85,11.85,0,0,0,1.125,4.558,9.939,9.939,0,0,0,6.442,5.262,16.74,16.74,0,0,0,3.426.454c.584.025,6.54.044,12.5.044s11.918-.007,12.488-.036a16.12,16.12,0,0,0,3.549-.465A9.879,9.879,0,0,0,46.027,41.4a11.656,11.656,0,0,0,1.112-4.47c.032-.406.045-6.887.045-13.359s-.015-12.942-.046-13.348A11.525,11.525,0,0,0,46,5.709a9.351,9.351,0,0,0-2.02-2.767A10.187,10.187,0,0,0,38.239.216C37.137.057,36.918.01,31.278,0Z" transform="translate(1818.696 601.624)" fill="url(#radial-gradient)"/>
    <path id="Path_4" data-name="Path 4" d="M23.6,0c-9.85,0-12.731.01-13.291.057a11.706,11.706,0,0,0-4.65,1.169A9.419,9.419,0,0,0,2.947,3.21,10.125,10.125,0,0,0,.214,8.948c-.16,1.1-.206,1.328-.216,6.964,0,1.878,0,4.351,0,7.667C0,33.421.009,36.3.056,36.858a11.85,11.85,0,0,0,1.125,4.558,9.939,9.939,0,0,0,6.442,5.262,16.74,16.74,0,0,0,3.426.454c.584.025,6.54.044,12.5.044s11.918-.007,12.488-.036a16.12,16.12,0,0,0,3.549-.465A9.879,9.879,0,0,0,46.027,41.4a11.656,11.656,0,0,0,1.112-4.47c.032-.406.045-6.887.045-13.359s-.015-12.942-.046-13.348A11.525,11.525,0,0,0,46,5.709a9.351,9.351,0,0,0-2.02-2.767A10.187,10.187,0,0,0,38.239.216C37.137.057,36.918.01,31.278,0Z" transform="translate(1818.696 601.624)" fill="url(#radial-gradient-2)"/>
    <path id="Path_5" data-name="Path 5" d="M33.992,18c-4.343,0-4.888.019-6.594.1a11.734,11.734,0,0,0-3.881.743,8.18,8.18,0,0,0-4.678,4.677A11.683,11.683,0,0,0,18.1,27.4c-.076,1.706-.1,2.251-.1,6.595s.019,4.887.1,6.593a11.754,11.754,0,0,0,.743,3.882,8.184,8.184,0,0,0,4.676,4.679,11.744,11.744,0,0,0,3.882.743c1.706.078,2.25.1,6.593.1s4.887-.019,6.592-.1a11.751,11.751,0,0,0,3.883-.743,8.194,8.194,0,0,0,4.676-4.679,11.855,11.855,0,0,0,.743-3.882c.077-1.706.1-2.25.1-6.593s-.02-4.888-.1-6.594a11.85,11.85,0,0,0-.743-3.882,8.182,8.182,0,0,0-4.677-4.677A11.771,11.771,0,0,0,40.58,18.1c-1.706-.078-2.249-.1-6.593-.1Zm-1.435,2.882h1.435c4.27,0,4.776.015,6.462.092a8.853,8.853,0,0,1,2.969.551,5.3,5.3,0,0,1,3.034,3.035,8.837,8.837,0,0,1,.551,2.969c.077,1.686.093,2.192.093,6.46s-.017,4.774-.093,6.46a8.846,8.846,0,0,1-.551,2.969,5.3,5.3,0,0,1-3.034,3.033A8.82,8.82,0,0,1,40.454,47c-1.686.077-2.192.093-6.462.093s-4.776-.017-6.462-.093a8.87,8.87,0,0,1-2.969-.551,5.3,5.3,0,0,1-3.036-3.034,8.837,8.837,0,0,1-.551-2.969c-.077-1.686-.092-2.192-.092-6.463s.015-4.774.092-6.46a8.855,8.855,0,0,1,.551-2.969,5.3,5.3,0,0,1,3.036-3.036,8.833,8.833,0,0,1,2.969-.551c1.475-.067,2.047-.087,5.027-.09Zm9.97,2.655a1.919,1.919,0,1,0,1.919,1.918,1.919,1.919,0,0,0-1.919-1.918ZM33.992,25.78A8.212,8.212,0,1,0,42.2,33.993a8.213,8.213,0,0,0-8.211-8.213Zm0,2.882a5.331,5.331,0,1,1-5.33,5.331A5.331,5.331,0,0,1,33.992,28.662Z" transform="translate(1808.29 591.222)" fill="#fff"/>
  </g>
</svg>
