<svg xmlns="http://www.w3.org/2000/svg" width="138.635" height="72" viewBox="0 0 138.635 72">
  <path id="logo" d="M49.08,63.852c-.592,1.1-1.65,3.124-2.588,4.912l-1.668,3.152a.134.134,0,0,1-.116.069H42.832a.139.139,0,0,1-.116-.065.129.129,0,0,1,0-.129l1.109-2.1-1.169-5.878a.125.125,0,0,1,.028-.111.139.139,0,0,1,.1-.046h1.848a.129.129,0,0,1,.134.116c.079.587.153,1.1.217,1.562.116.781.208,1.428.277,2.084.462-1.058,1.178-2.62,1.687-3.7a.134.134,0,0,1,.12-.074h1.913a.125.125,0,0,1,.111.065A.12.12,0,0,1,49.08,63.852Zm6.377,2.509a3.559,3.559,0,0,1-3.748,3.771c-1.932,0-3.087-1.077-3.087-2.888a3.586,3.586,0,0,1,3.762-3.734c1.922,0,3.068,1.067,3.068,2.851Zm-2.144.046c0-.582-.189-1.285-1.081-1.285-1.031,0-1.5,1.04-1.5,2.006,0,.6.2,1.308,1.128,1.308s1.456-1.021,1.456-2.029Zm7.135-2.874a2.7,2.7,0,0,0-.393-.023,2.144,2.144,0,0,0-1.636.693,2.906,2.906,0,0,1,.074-.388.125.125,0,0,0-.028-.111.134.134,0,0,0-.1-.046H56.705a.129.129,0,0,0-.129.111l-1.054,6.007a.143.143,0,0,0,.028.106.134.134,0,0,0,.1.051H57.44a.129.129,0,0,0,.129-.111l.333-1.885c.319-1.816.568-2.555,1.765-2.555a2.024,2.024,0,0,1,.439.042.143.143,0,0,0,.106,0,.129.129,0,0,0,.055-.088l.287-1.627a.129.129,0,0,0-.106-.176Zm6.664.171a.139.139,0,0,0-.1-.046H65.236a.129.129,0,0,0-.129.111l-.541,3.078c-.176,1.067-.568,1.567-1.225,1.567-.462,0-.633-.236-.633-.79A5.581,5.581,0,0,1,62.8,66.7l.513-2.884a.134.134,0,0,0-.028-.111.148.148,0,0,0-.1-.046H61.4a.139.139,0,0,0-.134.111l-.638,3.623a4.381,4.381,0,0,0-.074.721,1.8,1.8,0,0,0,1.941,1.95,2.389,2.389,0,0,0,1.705-.638l-.06.347a.111.111,0,0,0,.028.106.125.125,0,0,0,.1.051h1.691a.139.139,0,0,0,.134-.111L67.14,63.81a.12.12,0,0,0-.028-.106Zm4.519-.185a2.555,2.555,0,0,0-1.775.652l.065-.356a.139.139,0,0,0-.032-.111.134.134,0,0,0-.1-.046h-1.7a.139.139,0,0,0-.134.111L66.9,69.776a.129.129,0,0,0,.032.106.125.125,0,0,0,.1.051h1.784a.129.129,0,0,0,.129-.111l.55-3.078c.176-1.058.587-1.571,1.252-1.571.462,0,.656.245.656.818a6.062,6.062,0,0,1-.088.878L70.8,69.776a.129.129,0,0,0,.032.106.125.125,0,0,0,.1.051h1.784a.129.129,0,0,0,.129-.111l.652-3.628a4.335,4.335,0,0,0,.074-.721,1.807,1.807,0,0,0-1.946-1.955Zm9.145,2.842a3.559,3.559,0,0,1-3.748,3.771c-1.932,0-3.087-1.077-3.087-2.888A3.586,3.586,0,0,1,77.7,63.51c1.922,0,3.073,1.067,3.073,2.851Zm-2.144.046c0-.582-.185-1.285-1.077-1.285-1.035,0-1.5,1.04-1.5,2.006,0,.6.194,1.308,1.123,1.308s1.456-1.021,1.456-2.029Zm8.706-2.685a.125.125,0,0,0-.116-.065H85.315a.134.134,0,0,0-.12.074c-.508,1.067-1.229,2.629-1.687,3.7-.074-.656-.166-1.3-.277-2.084-.065-.462-.139-.975-.217-1.562a.134.134,0,0,0-.134-.116H81.031a.134.134,0,0,0-.1.046.125.125,0,0,0-.028.111L82.07,69.7l-1.114,2.1a.143.143,0,0,0,0,.129.134.134,0,0,0,.116.065h1.885a.139.139,0,0,0,.12-.069l1.654-3.152c.924-1.788,2-3.817,2.588-4.912A.129.129,0,0,0,87.339,63.722ZM93.6,66.361a3.559,3.559,0,0,1-3.748,3.771c-1.932,0-3.087-1.077-3.087-2.888a3.586,3.586,0,0,1,3.762-3.734c1.927,0,3.078,1.067,3.078,2.851Zm-2.144.046c0-.582-.189-1.285-1.081-1.285-1.031,0-1.5,1.04-1.5,2.006,0,.6.2,1.308,1.128,1.308s1.46-1.021,1.46-2.029ZM35.79.223a1.243,1.243,0,0,0-.157,0c-.226,0-.647.046-1.294.046a7.625,7.625,0,0,1-.966-.037h-.434c-.129-.009-.129.134-.129.25s.042.226.106.226c.661,0,.818.213.818.578a3.581,3.581,0,0,1-.573,1.386c-.139.236-.287.462-.462.726-.245.4-.5.8-.735,1.22-.416-.638-.855-1.317-1.248-1.955a5.139,5.139,0,0,1-.739-1.534c0-.379.31-.411.716-.411.042,0,.111-.032.111-.25s-.092-.236-.125-.236h-.545c-.319,0-.716.037-1.188.037A8.728,8.728,0,0,1,27.758.228h-.37c-.088,0-.125.092-.125.231s0,.25.1.25c.319,0,.5.088.9.582.194.231,1.664,2.366,2.662,4.085V7.289c0,.67-.3.924-1.132.924-.1,0-.106.143-.106.25s0,.24.106.24h.43c.337,0,.8-.028,1.386-.028s1.017,0,1.317.028h.4c.055,0,.148-.032.148-.263s-.079-.226-.125-.226c-.924,0-1.128-.374-1.128-.924V5.209c.693-1.178,1.617-2.611,2.066-3.3l.217-.342A1.5,1.5,0,0,1,35.744.745c.129,0,.153-.074.153-.236S35.9.223,35.79.223ZM44.57,1.3a4.348,4.348,0,0,1,1.354,3.161,4.242,4.242,0,0,1-1.386,3.193,5.134,5.134,0,0,1-6.585.023,4.2,4.2,0,0,1-1.386-3.235A4.519,4.519,0,0,1,41.215,0a4.778,4.778,0,0,1,3.332,1.3ZM38.1,4.507c-.018,2.421,1.123,3.808,3.115,3.808,1.89,0,3.147-1.534,3.147-3.808,0-2.371-1.271-3.96-3.161-3.96s-3.119,1.627-3.119,3.96ZM56.585,8.2a2.186,2.186,0,0,1-.615-.1c-.739-.3-2.311-1.788-4.441-4.187.693-.619,2.019-1.964,2.458-2.435A1.964,1.964,0,0,1,55.559.732c.12,0,.134-.139.134-.259s0-.226-.134-.226h-.351c-.268,0-.638.042-1.123.042A8.092,8.092,0,0,1,53.2.256a3.448,3.448,0,0,0-.527-.023c-.129,0-.12.106-.12.213s0,.273.12.273c.374,0,.527.079.527.259A.97.97,0,0,1,53,1.439a17.066,17.066,0,0,1-2.948,3.11c0-.6,0-1.326.023-1.913V1.642c0-.652.037-.924.924-.924.106,0,.12-.12.12-.236s0-.25-.12-.25h-.4c-.268,0-.638.042-1.192.042A13.117,13.117,0,0,1,48.022.232h-.43c-.116,0-.134.129-.134.259s0,.226.111.226c.957,0,1.151.36,1.151.9V7.3c0,.67-.3.924-1.128.924-.1,0-.111.143-.111.25s0,.24.111.24h.43c.333,0,.795-.028,1.386-.028s.947,0,1.192.028h.351c.069,0,.148-.046.148-.263s-.079-.226-.125-.226c-.924,0-.952-.342-.952-.924V5.2l.605-.462c1.04,1.225,2.149,2.431,2.7,2.934.157.143.287.273.287.379s-.051.176-.5.176c-.12,0-.134.116-.134.226s0,.263.111.263h.781c.379,0,.813-.023,1.128-.023s.67,0,.989.023h.545c.12,0,.12-.208.12-.273s-.009-.263-.1-.263Zm8.544-6.9a4.348,4.348,0,0,1,1.354,3.161A4.242,4.242,0,0,1,65.1,7.654a5.134,5.134,0,0,1-6.585.023,4.159,4.159,0,0,1-1.386-3.235A4.515,4.515,0,0,1,61.8,0a4.778,4.778,0,0,1,3.332,1.3ZM58.688,4.507c0,2.421,1.118,3.808,3.11,3.808,1.89,0,3.156-1.53,3.156-3.8,0-2.371-1.266-3.96-3.156-3.96S58.688,2.173,58.688,4.507ZM77.047.223h-.462c-.328,0-.781.042-1.336.042A13.072,13.072,0,0,1,73.863.223h-.43c-.12,0-.134.129-.134.259s0,.226.111.226c.957,0,1.151.36,1.151.9V3.971c-.578-.051-1.511-.069-2.19-.069-.582,0-1.363.023-2.047.055,0-.578,0-1.091.028-1.506v-.8c0-.652.342-.924,1.118-.924.106,0,.12-.12.12-.236s0-.25-.12-.25h-.462c-.333,0-.786.042-1.34.042A13.117,13.117,0,0,1,68.281.242h-.43c-.116,0-.134.129-.134.259s0,.226.111.226c.957,0,1.151.36,1.151.9V7.307c0,.67-.3.924-1.128.924-.1,0-.111.143-.111.25s0,.24.111.24h.43c.333,0,.795-.028,1.386-.028s1.017,0,1.317.028h.407c.092,0,.143-.083.143-.25s-.046-.24-.12-.24c-.924,0-1.132-.374-1.132-.924V4.424c.55.055,1.386.092,2.038.092.786,0,1.594,0,2.2-.032v2.86c0,.67-.3.924-1.128.924-.1,0-.111.143-.111.25s0,.24.111.24h.43c.333,0,.795-.028,1.386-.028s1.017,0,1.317.028h.4c.1,0,.148-.083.148-.25s-.046-.24-.12-.24c-.924,0-1.132-.374-1.132-.924,0-1.548.028-3.068.051-4.159V1.757c0-.652.342-.924,1.114-.924.106,0,.125-.12.125-.236S77.172.223,77.047.223Zm10.5,8.212c0,.217-.079.263-.148.263H87c-.3,0-.716-.037-1.317-.037s-1.054,0-1.386.037h-.425c-.111,0-.111-.134-.111-.24s0-.25.111-.25c.873,0,1.031-.2,1.031-.587a.878.878,0,0,0-.065-.323L84.8,7.2c-.125-.314-.384-.961-.684-1.682-.287,0-.832.032-1.386.032-.462,0-1.091,0-1.506-.046-.079.194-.152.374-.226.545-.111.263-.208.49-.282.7a2.408,2.408,0,0,0-.236.887c0,.393.222.578.7.578.046,0,.125.028.125.226s-.079.263-.148.263H80.79c-.2,0-.462-.032-.85-.032s-.744.023-.924.037h-.231c-.111,0-.111-.134-.111-.24s0-.25.134-.25c.411,0,.661-.314.98-.883.157-.4,2.93-6.668,2.981-7.015.051-.2.134-.273.305-.273s.222.069.287.231c.305.878,2.7,6.7,3.133,7.343.3.462.513.592.924.592C87.473,8.209,87.551,8.236,87.551,8.435ZM83.082,3.061c-.18-.462-.328-.809-.411-1-.226.462-.8,1.761-1.289,2.916h2.482C83.591,4.322,83.309,3.624,83.082,3.061ZM99.28.708c.083,0,.125-.088.125-.259,0-.069,0-.226-.125-.226h-.5c-.434,0-1.091.042-1.784.042a.217.217,0,0,0-.236.12c-.712,1.474-2.056,4.5-2.736,6.169-.06-.157-.143-.365-.24-.61C93.207,4.521,92.14,1.845,91.5.366a.162.162,0,0,0-.176-.1H90.236A9.476,9.476,0,0,1,89.187.232h-.434c-.092,0-.125.139-.125.259s0,.226.125.226c1.174,0,1.174.518,1.174.823s0,1.141-.023,2.061c0,1.275-.037,2.717-.037,3.568,0,.726-.337,1.035-1.137,1.035-.111,0-.111.18-.111.25s0,.24.083.24h.268c.245,0,.615-.028,1.16-.028s.966,0,1.206.028h.236c.069,0,.106-.092.106-.25s-.055-.24-.106-.24c-.813,0-1.058-.24-1.058-1.035V1.577c.7,1.446,2.722,6.414,2.87,6.853a.24.24,0,0,0,.25.185.236.236,0,0,0,.25-.208c.088-.333,2.19-5.2,2.981-6.825,0,.836-.06,4.422-.06,5.707,0,.679-.282.924-1.114.924-.079,0-.125.092-.125.25s0,.24.111.24h.43c.333,0,.795-.028,1.386-.028s1.017,0,1.317.028h.407c.065,0,.143-.046.143-.263s-.074-.226-.12-.226c-.924,0-1.132-.374-1.132-.924V1.845C98.115,1.041,98.452.708,99.28.708Zm10.337,7.727c0,.217-.079.263-.143.263h-.407c-.3,0-.712-.037-1.317-.037s-1.054,0-1.386.037h-.43c-.111,0-.111-.134-.111-.24s0-.25.111-.25c.873,0,1.035-.2,1.035-.587A.883.883,0,0,0,106.9,7.3l-.042-.1c-.125-.314-.384-.961-.684-1.682-.282,0-.827.032-1.386.032-.462,0-1.086,0-1.5-.046-.079.194-.157.374-.231.545-.111.263-.2.49-.282.7a2.408,2.408,0,0,0-.236.887c0,.393.226.578.707.578.046,0,.12.028.12.226s-.079.263-.143.263h-.37c-.134,0-.462-.032-.846-.032-.462,0-.749.023-.924.037h-.231c-.106,0-.106-.134-.106-.24s0-.25.129-.25c.416,0,.665-.314.98-.883.208-.379,2.958-6.664,3.018-7.01.051-.2.134-.273.31-.273s.222.069.282.231c.31.878,2.7,6.7,3.138,7.343.291.462.508.592.924.592.019,0,.092.023.092.222Zm-4.469-5.374-.407-1c-.231.462-.809,1.761-1.294,2.916h2.482C105.661,4.322,105.361,3.624,105.148,3.061ZM19.218,14.854c0-.079-.06-.088-.12-.088s-.12,0-.12.088a.157.157,0,0,1-.143.157.153.153,0,0,1-.1-.055,1.821,1.821,0,0,0-1.238-.416,2.029,2.029,0,0,0-2.1,2.14,2.038,2.038,0,0,0,2.043,2.163,1.941,1.941,0,0,0,1.271-.425c.074-.055.116-.079.148-.079s.06.106.06.129.083.083.129.083.129-.046.129-.083V18.1c0-.24.028-.522.042-.689V17.28a.113.113,0,0,0-.12-.083c-.088,0-.12,0-.129.079a1.423,1.423,0,0,1-1.409,1.262c-.873,0-1.437-.712-1.437-1.811s.541-1.881,1.414-1.881a1.52,1.52,0,0,1,1.035.356,1.386,1.386,0,0,1,.416.869c0,.079.046.083.12.083s.12,0,.12-.083a.606.606,0,0,0,0-.079v-.98A1.323,1.323,0,0,0,19.218,14.854Zm5.314,3.766c0,.079,0,.139-.083.139h-.79c-.226,0-.55-.287-.994-.869l-.573-.753a1.386,1.386,0,0,0-.25-.273h-.268v1.2c0,.268.088.462.527.462.023,0,.065,0,.065.12s-.051.134-.079.134H20.411c-.06,0-.06-.069-.06-.125s0-.129.06-.129c.388,0,.527-.111.527-.434V15.325c0-.263-.088-.425-.531-.425,0,0-.065,0-.065-.12s0-.134.069-.134h1.733c1.031,0,1.386.578,1.386,1.072,0,.388-.273.883-1.035,1.012a8.966,8.966,0,0,1,.67.721l.088.1c.647.753.869.924,1.169.924C24.524,18.481,24.533,18.555,24.533,18.62ZM22,14.923a3.106,3.106,0,0,0-.393,0c0,.374-.032,1.128-.032,1.687h.337c.592,0,.883-.273.883-.832A.767.767,0,0,0,22,14.9ZM29.343,16.7a2.135,2.135,0,0,1-2.227,2.14A2.107,2.107,0,0,1,24.9,16.7a2.223,2.223,0,1,1,4.446,0Zm-3.7.023c0,1.165.541,1.848,1.479,1.848s1.488-.739,1.488-1.848-.6-1.9-1.488-1.9-1.488.781-1.488,1.9Zm6.47-.485h-.051c-.434-.18-.809-.333-.809-.786a.6.6,0,0,1,.652-.624.85.85,0,0,1,.86.947c0,.1.069.1.134.1s.139,0,.139-.092V14.72s0-.06-.139-.06-.065.037-.065.051c0,.088-.051.1-.092.1s-.046,0-.111-.051l-.139-.074a1.16,1.16,0,0,0-.61-.148,1.118,1.118,0,0,0-1.151,1.109c0,.781.564,1.017,1.058,1.225h.046c.462.194.924.379.924.924a.753.753,0,0,1-.786.772,1.165,1.165,0,0,1-1.118-1.234c0-.069-.074-.079-.143-.079s-.129,0-.129.1v1.22c0,.042.028.088.166.088.065,0,.1-.037.1-.074s0-.157.055-.157.065,0,.125.065a.764.764,0,0,0,.189.134,1.22,1.22,0,0,0,.749.194,1.386,1.386,0,0,0,.887-.3,1.2,1.2,0,0,0,.421-.97C33.313,16.7,32.675,16.457,32.116,16.24Zm4.187,0h-.051c-.434-.18-.809-.333-.809-.786a.6.6,0,0,1,.652-.624.85.85,0,0,1,.873.924c0,.1.069.1.134.1s.139,0,.139-.092V14.7s0-.06-.139-.06-.069.037-.069.051c0,.088-.046.1-.088.1s-.051,0-.116-.051l-.139-.074a1.16,1.16,0,0,0-.582-.125,1.118,1.118,0,0,0-1.151,1.109c0,.781.564,1.017,1.058,1.225h.046c.462.194.924.379.924.924a.753.753,0,0,1-.786.772,1.165,1.165,0,0,1-1.118-1.234c0-.069-.074-.079-.143-.079s-.129,0-.129.1v1.22c0,.042.028.088.166.088s.1-.037.1-.074,0-.157.06-.157.06,0,.125.065a2.009,2.009,0,0,0,.185.134,1.229,1.229,0,0,0,.753.194,1.386,1.386,0,0,0,.887-.3,1.215,1.215,0,0,0,.416-.97C37.5,16.7,36.867,16.457,36.3,16.24Zm9.071-1.594h-1.4c-.074,0-.074.088-.074.125,0,.116.046.129.065.129.485,0,.573.176.573.522V17.6c-.162-.236-.494-.665-1.021-1.3l-.462-.555c-.356-.425-.661-.795-.832-1.017a.139.139,0,0,0-.116-.06H41.086c-.065,0-.069.074-.069.129s0,.125.06.125c.148,0,.642.037.642.522V18.01c0,.351-.152.49-.522.49-.06,0-.06.1-.06.129s0,.125.051.125h1.479c.042,0,.06-.088.06-.129s0-.125-.06-.125c-.448-.018-.615-.148-.615-.481v-2.5c.61.67,2.26,2.8,2.528,3.2a.125.125,0,0,0,.111.065c.125,0,.176,0,.176-.06V15.454c0-.462.208-.545.522-.545.065,0,.065-.092.065-.129S45.416,14.646,45.374,14.646Zm3.175,0H46.834c-.074,0-.074.092-.074.134s0,.12.06.12c.462,0,.541.162.541.425V18.07c0,.323-.134.43-.527.43-.06,0-.06.1-.06.129s0,.125.06.125h1.687c.037,0,.079-.023.079-.129s-.037-.143-.079-.143c-.462,0-.527-.171-.527-.462V15.311c0-.139.055-.462.518-.462.069,0,.069-.088.069-.125S48.618,14.646,48.549,14.646Zm5.458,2.246h-1.7c-.153,0-.069.092-.069.139s0,.116.06.116c.522,0,.615.148.615.555,0,.518-.43.836-1.118.836-.873,0-1.437-.707-1.437-1.807,0-1.183.527-1.885,1.386-1.885a1.289,1.289,0,0,1,1.446,1.192c0,.065,0,.1.125.1s.12,0,.12-.1a.462.462,0,0,0,0-.069,5,5,0,0,1,0-.508V14.84c0-.032-.032-.083-.12-.083s-.125,0-.125.083-.032.148-.134.148a.134.134,0,0,1-.092-.037,2.006,2.006,0,0,0-1.262-.393,2.047,2.047,0,0,0-2.084,2.13A2.038,2.038,0,0,0,51.71,18.86a1.945,1.945,0,0,0,1.317-.462.287.287,0,0,1,.139-.042.305.305,0,0,1,.194.079.088.088,0,0,0,.069,0,.111.111,0,0,0,.116-.106c0-.129,0-.462,0-.61,0-.485.065-.573.43-.573.065,0,.065-.083.065-.116S54.066,16.892,54.006,16.892Zm5.324-2.246H57.611c-.069,0-.069.092-.069.134s0,.12.06.12c.462,0,.536.162.536.425v1.132c-.273,0-.712-.032-1.026-.032s-.642,0-.966.028v-1.1c0-.208.06-.462.522-.462.065,0,.065-.088.065-.125s0-.129-.065-.129H54.949c-.069,0-.069.092-.069.134s0,.12.06.12c.462,0,.536.162.536.425v2.745c0,.323-.129.43-.527.43-.06,0-.06.1-.06.129s0,.125.06.125h1.677c.037,0,.079-.023.079-.129s-.023-.125-.065-.125c-.462,0-.527-.171-.527-.462V16.637c.259.028.647.042.957.042h1.035v1.386c0,.323-.129.43-.527.43-.06,0-.06.1-.06.129s0,.125.06.125h1.677c.037,0,.079-.023.079-.129s-.023-.125-.065-.125c-.323,0-.527-.074-.527-.462V15.325c0-.139.06-.462.522-.462.065,0,.065-.088.065-.125S59.395,14.646,59.33,14.646Zm5.083.129a.12.12,0,0,0-.134-.129h-.337c-.43,0-1.151.023-1.493.023s-1.077,0-1.506-.023H60.6a.116.116,0,0,0-.12.129V15.7c0,.069.162.06.162.06a.085.085,0,0,0,.074-.055c.129-.545.31-.786,1.021-.786h.448v3.147c0,.323-.134.434-.527.434-.06,0-.06.1-.06.129s0,.125.06.125h1.65c.032,0,.079,0,.079-.134s-.079-.139-.079-.139c-.439,0-.527-.18-.527-.462,0-1.188,0-2.713.028-3.092H63.2c.7,0,.9.277,1.017.786,0,.051.042.065.079.065s.148,0,.148-.069v-.462c0-.18-.042-.388-.042-.462Zm5.083-.129H67.777c-.069,0-.069.092-.069.134s0,.12.06.12c.462,0,.536.162.536.425V18.07c0,.323-.134.43-.527.43-.06,0-.06.1-.06.129s0,.125.06.125h1.677c.037,0,.079-.023.079-.129s-.023-.125-.065-.125c-.439,0-.527-.171-.527-.462V15.33c0-.139.06-.462.522-.462.065,0,.065-.088.065-.125s.014-.1-.051-.1Zm4.658,2.842c-.065,0-.12,0-.129.1-.069.55-.462.855-1.146.855-.462,0-.716-.116-.716-.679V15.348c0-.268.06-.462.522-.462.065,0,.065-.088.065-.125s0-.129-.065-.129H70.966c-.069,0-.069.092-.069.134s0,.12.06.12c.462,0,.536.162.536.425v2.745c0,.323-.129.43-.527.43-.06,0-.06.1-.06.129s0,.125.06.125h3.11c.083,0,.139,0,.139-.129,0-.213,0-.462.023-.689a1.91,1.91,0,0,0,0-.379c0-.083-.065-.055-.1-.055Zm4.515,0c-.06,0-.12,0-.125.1-.074.55-.462.855-1.151.855-.462,0-.716-.116-.716-.679V15.348c0-.268.055-.462.518-.462.069,0,.069-.088.069-.125s0-.129-.069-.129H75.481c-.074,0-.074.092-.074.134s0,.12.06.12c.462,0,.541.162.541.425v2.745c0,.323-.134.43-.527.43-.06,0-.06.1-.06.129s0,.125.06.125h3.11c.083,0,.139,0,.139-.129,0-.213,0-.462.023-.689a1.91,1.91,0,0,0,0-.379c0-.083-.065-.055-.1-.055ZM84,14.646H82.611c-.069,0-.074.069-.074.143s.032.111.065.111c.393,0,.522.125.522.522v1.987c0,.67-.393,1.026-1.132,1.026A1,1,0,0,1,80.85,17.4c0-.813,0-1.77.028-2.07s.139-.434.522-.434c.069,0,.069-.1.069-.129s0-.125-.069-.125h-.069c-.129,0-.393.023-.776.023h-.846c-.074,0-.083.065-.083.134s0,.12.074.12c.374,0,.527.129.527.462v2a1.446,1.446,0,0,0,.462,1.141,1.58,1.58,0,0,0,1.04.351c1.086,0,1.733-.5,1.733-1.345V15.491c0-.384.171-.559.531-.559,0,0,.069,0,.069-.134s-.055-.152-.079-.152Zm6.118.254c.065,0,.065-.1.065-.134s0-.12-.065-.12H89.035a.111.111,0,0,0-.12.065c-.333.7-.961,2.149-1.289,2.962-.028-.074-.065-.171-.111-.282-.268-.693-.772-1.982-1.072-2.7a.092.092,0,0,0-.092-.051H85.134c-.069,0-.069.1-.069.134s0,.12.069.12c.545,0,.545.236.545.388v2.722c0,.411-.189.476-.578.476-.06,0-.06.1-.06.129s0,.125.051.125h1.359c.037,0,.06-.046.06-.129s-.032-.125-.06-.125c-.379,0-.494-.116-.494-.49V15.348c.351.739,1.275,3.068,1.345,3.281a.12.12,0,0,0,.129.092.125.125,0,0,0,.125-.106c.042-.157,1.007-2.445,1.386-3.263V18.07c0,.323-.134.43-.522.43,0,0-.065,0-.065.129s0,.125.06.125h1.677c.028,0,.079,0,.079-.134s-.06-.139-.088-.139c-.323,0-.527-.074-.527-.462V15.441c0-.388.153-.541.555-.541Zm3.068-.254H91.474c-.074,0-.074.092-.074.134s0,.12.06.12c.462,0,.541.162.541.425V18.07c0,.323-.134.43-.527.43-.065,0-.065.1-.065.129s0,.125.065.125h1.677c.032,0,.074-.023.074-.129s0-.125-.065-.125c-.439,0-.527-.171-.527-.462,0-.753,0-1.483.023-2.019V15.33c0-.139.06-.462.522-.462.065,0,.065-.088.065-.125s-.009-.1-.074-.1Zm5.545,0h-1.4c-.079,0-.079.088-.079.125,0,.116.046.129.069.129.462,0,.568.176.568.522V17.6c-.157-.236-.49-.665-1.017-1.3l-.462-.555c-.356-.425-.665-.795-.836-1.017a.129.129,0,0,0-.111-.06H94.455c-.065,0-.074.074-.074.129s0,.125.06.125c.153,0,.647.037.647.522V18.01c0,.351-.152.49-.522.49-.06,0-.06.1-.06.129s0,.125.051.125h1.474c.046,0,.06-.088.06-.129s-.023-.125-.06-.125c-.421,0-.61-.148-.61-.49V15.519c.61.67,2.26,2.8,2.528,3.2a.12.12,0,0,0,.106.065c.125,0,.18,0,.18-.06V15.454c0-.462.208-.545.522-.545.065,0,.065-.092.065-.129s-.046-.134-.088-.134Zm4.806,3.979c0,.12-.046.134-.079.134h-1.677c-.06,0-.06-.069-.06-.12s0-.129.06-.129c.411,0,.485-.092.485-.277a.462.462,0,0,0-.032-.152v-.046c-.06-.152-.18-.462-.323-.813h-.661a6.462,6.462,0,0,1-.707-.023l-.106.259c-.055.125-.1.236-.134.337a1.2,1.2,0,0,0-.111.425c0,.189.1.273.323.273.023,0,.065,0,.065.116s-.046.134-.074.134H99.354c-.06,0-.06-.069-.06-.12s0-.129.074-.129c.189,0,.3-.152.462-.425.092-.166,1.386-3.235,1.433-3.387a.135.135,0,0,1,.153-.139c.1,0,.116.046.143.12.148.425,1.28,3.235,1.488,3.549.134.213.236.282.434.282.032.018.06.032.06.134Zm-2.135-2.592c-.079-.2-.148-.37-.185-.462-.116.236-.374.836-.6,1.386h1.151Zm6.423-1.248a.12.12,0,0,0-.134-.129h-.342c-.43,0-1.146.023-1.493.023s-1.072,0-1.5-.023h-.342a.116.116,0,0,0-.12.129,3.818,3.818,0,0,1-.023.462,2.986,2.986,0,0,0,0,.462c0,.069.162.06.162.06a.077.077,0,0,0,.069-.055c.134-.545.314-.786,1.026-.786h.448v3.138c0,.323-.139.434-.527.434-.06,0-.06.1-.06.129s0,.125.06.125h1.677c.032,0,.079,0,.079-.134s-.06-.139-.06-.139c-.439,0-.527-.18-.527-.462,0-1.188,0-2.713.028-3.092h.393c.7,0,.9.277,1.017.786a.074.074,0,0,0,.079.065c.074,0,.148,0,.148-.069v-.462C107.884,15.066,107.829,14.858,107.829,14.784Zm3.027-.129h-1.719c-.069,0-.069.092-.069.134s0,.12.06.12c.462,0,.536.162.536.425v2.745c0,.323-.134.43-.527.43-.06,0-.06.1-.06.129s0,.125.06.125h1.677c.037,0,.079-.023.079-.129s-.023-.125-.065-.125c-.462,0-.527-.171-.527-.462,0-.753,0-1.483.023-2.019v-.689c0-.139.06-.462.522-.462.065,0,.065-.088.065-.125s0-.106-.055-.106Zm5.545,2.056a2.14,2.14,0,0,1-2.232,2.14,2.107,2.107,0,0,1-2.218-2.14,2.227,2.227,0,0,1,4.45,0Zm-3.7.023c0,1.165.541,1.848,1.479,1.848s1.488-.739,1.488-1.848-.6-1.9-1.488-1.9-1.5.772-1.5,1.895Zm8.646-2.08h-1.4c-.074,0-.074.088-.074.125,0,.116.046.129.065.129.462,0,.573.176.573.522v2.177c-.162-.236-.494-.665-1.021-1.3l-.462-.555c-.356-.425-.661-.795-.836-1.017a.125.125,0,0,0-.111-.06h-1.017c-.065,0-.074.074-.074.129s0,.125.065.125c.148,0,.642.037.642.522v2.565c0,.351-.153.49-.522.49-.06,0-.06.1-.06.129s0,.125.051.125h1.474c.046,0,.06-.088.06-.129s0-.125-.06-.125c-.421,0-.61-.148-.61-.49v-2.5c.61.67,2.26,2.8,2.528,3.2a.12.12,0,0,0,.106.065c.125,0,.18,0,.18-.06V15.454c0-.462.208-.545.522-.545.065,0,.065-.092.065-.129s-.055-.134-.1-.134ZM.387,31.231A.379.379,0,0,0,0,31.615V34.72a.374.374,0,0,0,.388.4l10.809-.3a.37.37,0,0,1,.388.379l-.032,3.78a.388.388,0,0,1-.393.379L3.3,39.226a.388.388,0,0,0-.388.384v3.147a.374.374,0,0,0,.388.374l7.907-.3a.393.393,0,0,1,.4.374l.092,3.507a.37.37,0,0,1-.379.384L.387,46.9A.379.379,0,0,0,0,47.28v4.473a.374.374,0,0,0,.388.374l15.786-.615a.434.434,0,0,0,.407-.4L17.5,31.869a.379.379,0,0,0-.374-.4Zm121.138,0a.384.384,0,0,0-.393.384V34.72a.374.374,0,0,0,.4.4l10.809-.3a.37.37,0,0,1,.384.379l-.032,3.8a.384.384,0,0,1-.393.379l-7.856-.129a.388.388,0,0,0-.393.384v3.147a.374.374,0,0,0,.393.374l7.9-.3a.388.388,0,0,1,.4.374l.092,3.507a.365.365,0,0,1-.374.384L121.535,46.9a.379.379,0,0,0-.393.379v4.473a.374.374,0,0,0,.393.374l15.758-.628a.462.462,0,0,0,.411-.4l.929-19.215a.379.379,0,0,0-.37-.4Zm-75.043,4.9a.36.36,0,0,0-.323-.208H41.076a.43.43,0,0,0-.393.287,40.83,40.83,0,0,1-1.6,12.477,9.962,9.962,0,0,1-1.493,3.193c-.143.157-.083.287.129.287a7.065,7.065,0,0,0,4.339-2.024c.129-.12.245-.245.365-.37,3.383-3.669,4.08-13.443,4.08-13.443a.393.393,0,0,0-.023-.2Zm15.68,7.3-.18.139-.522.37c-.268.18-.536.356-.813.522-.347.217-.7.421-1.067.615s-.846.43-1.28.624-.957.4-1.451.564a13.4,13.4,0,0,1-1.585.434l-.328.065c-.1,0-.213.065-.31,0a.245.245,0,0,1-.12-.231l.226-15.481a.379.379,0,0,0-.384-.388H49.265a.374.374,0,0,0-.374.388l.726,20.7a.411.411,0,0,0,.4.393h.97a15.613,15.613,0,0,0,5.758-.652,9.118,9.118,0,0,0,1.848-.989,8.6,8.6,0,0,0,1.386-1.229,8.715,8.715,0,0,0,1.012-1.349,9.7,9.7,0,0,0,.693-1.345,11.658,11.658,0,0,0,.43-1.225c.092-.328.171-.656.231-.989.037-.208.069-.421.092-.628v-.166C62.458,43.371,62.329,43.306,62.163,43.435Zm33.822-13.4H90.9a.393.393,0,0,0-.388.388V31a37.84,37.84,0,0,1-.439,4.986c-1.848,11.691-8.7,16.012-8.7,16.012-.143.092-.152.166-.037.189h.1a14.326,14.326,0,0,0,7.463-2.87c5.254-3.937,6.973-10.629,7.394-16.382.046-.665.083-1.317.1-1.945v-.568a.393.393,0,0,0-.4-.384ZM90.523,31a36.455,36.455,0,0,1-.411,4.811v.171a37.842,37.842,0,0,0,.411-4.986Z" transform="translate(0.001 0.006)" fill="#fff"/>
</svg>
