<svg xmlns="http://www.w3.org/2000/svg" width="53.928" height="43.8" viewBox="0 0 53.928 43.8">
  <path id="Icon_awesome-twitter" data-name="Icon awesome-twitter" d="M48.385,14.3c.034.479.034.958.034,1.437,0,14.611-11.121,31.447-31.447,31.447A31.234,31.234,0,0,1,0,42.219a22.865,22.865,0,0,0,2.669.137,22.135,22.135,0,0,0,13.722-4.722A11.072,11.072,0,0,1,6.057,29.969a13.938,13.938,0,0,0,2.087.171,11.69,11.69,0,0,0,2.909-.376A11.054,11.054,0,0,1,2.19,18.916v-.137a11.131,11.131,0,0,0,5,1.4A11.069,11.069,0,0,1,3.764,5.4a31.417,31.417,0,0,0,22.79,11.566,12.477,12.477,0,0,1-.274-2.532A11.063,11.063,0,0,1,45.408,6.871,21.761,21.761,0,0,0,52.423,4.2a11.023,11.023,0,0,1-4.859,6.091,22.157,22.157,0,0,0,6.365-1.711A23.759,23.759,0,0,1,48.385,14.3Z" transform="translate(0 -3.381)" fill="#00aced"/>
</svg>
