<svg xmlns="http://www.w3.org/2000/svg" width="29.045" height="23.59" viewBox="0 0 29.045 23.59">
  <path id="Icon_awesome-twitter" data-name="Icon awesome-twitter" d="M26.06,9.26c.018.258.018.516.018.774,0,7.87-5.99,16.937-16.937,16.937A16.822,16.822,0,0,1,0,24.3a12.315,12.315,0,0,0,1.438.074,11.922,11.922,0,0,0,7.39-2.543A5.963,5.963,0,0,1,3.262,17.7a7.507,7.507,0,0,0,1.124.092,6.3,6.3,0,0,0,1.567-.2,5.954,5.954,0,0,1-4.773-5.842v-.074a6,6,0,0,0,2.691.756A5.962,5.962,0,0,1,2.027,4.468,16.921,16.921,0,0,0,14.3,10.7a6.72,6.72,0,0,1-.147-1.364,5.959,5.959,0,0,1,10.3-4.073,11.72,11.72,0,0,0,3.778-1.438A5.937,5.937,0,0,1,25.618,7.1a11.934,11.934,0,0,0,3.428-.921A12.8,12.8,0,0,1,26.06,9.26Z" transform="translate(0 -3.381)" fill="#fff"/>
</svg>
